<svg width="1152" height="422" viewBox="0 0 1152 422" fill="none" xmlns="http://www.w3.org/2000/svg">
<path d="M691.272 88.9405C692.428 88.9472 693.57 89.1929 694.627 89.6624C694.506 89.185 694.444 88.6944 694.442 88.2018C694.458 86.7218 695.004 85.2965 695.981 84.1855C696.958 83.0745 698.301 82.3516 699.766 82.1482C701.231 81.9449 702.72 82.2747 703.962 83.0776C705.204 83.8805 706.117 85.1031 706.535 86.523C706.711 82.8895 708.297 79.4682 710.955 76.987C713.613 74.5057 717.133 73.1603 720.766 73.2369C724.4 73.3134 727.86 74.8059 730.411 77.3969C732.963 79.9878 734.403 83.4728 734.427 87.1106C734.43 88.0009 734.345 88.8893 734.175 89.7631C735.223 88.535 736.562 87.5905 738.07 87.0167C739.577 86.4429 741.205 86.2582 742.803 86.4796C744.401 86.701 745.917 87.3215 747.213 88.2838C748.508 89.2461 749.54 90.5193 750.215 91.986C750.889 93.4527 751.184 95.0658 751.072 96.6765C750.96 98.2872 750.445 99.8438 749.574 101.203C748.703 102.562 747.504 103.68 746.088 104.453C744.672 105.226 743.084 105.63 741.471 105.628H691.272C689.261 105.356 687.416 104.363 686.081 102.833C684.745 101.304 684.009 99.3411 684.009 97.3095C684.009 95.2778 684.745 93.3152 686.081 91.7855C687.416 90.2558 689.261 89.2628 691.272 88.9909V88.9405Z" fill="#E1F1FF"/>
<path d="M529.55 323.388C528.728 323.22 527.873 323.053 527.084 322.918" stroke="#0A0F17" stroke-linejoin="round"/>
<path d="M522.959 322.397C492.417 319.141 453.455 335.274 423.534 337.927C362.752 343.332 326.524 315.464 310.557 288.133C290.531 253.868 296.669 209.497 331.119 176.407C369.695 139.473 409.529 142.545 456.91 126.781C499.511 112.595 535.253 77.1717 567.925 40.1537C622.669 -21.9628 728.048 -11.2519 756.225 80.0425C765.835 111.185 767.68 142.041 797.618 161.264C833.729 184.432 879.97 181.93 919.099 197.342C952.358 210.437 978.288 244.769 972.4 281.619C965.859 322.498 924.466 354.698 886.963 365.812C848.035 377.362 811.288 372.829 772.142 374.525" stroke="#0A0F17" stroke-linejoin="round" stroke-dasharray="3.01 2.5"/>
<path d="M770.07 374.609L767.554 374.725" stroke="#0A0F17" stroke-linejoin="round"/>
<path d="M522.424 421.382L531.397 351.224" stroke="#89B5F4" stroke-width="2" stroke-miterlimit="10"/>
<path d="M636.738 421.382L627.765 351.224" stroke="#89B5F4" stroke-width="2" stroke-miterlimit="10"/>
<path d="M692.6 54.6931H466.579V356.831H692.6V54.6931Z" fill="white" stroke="#89B5F4" stroke-miterlimit="10"/>
<path d="M680.192 344.407V67.1157L478.994 67.1157V344.407H680.192Z" fill="#E9F1FF" stroke="#89B5F4" stroke-miterlimit="10"/>
<path d="M542.311 204.528C543.602 203.588 544.39 203.101 544.39 203.101C544.39 203.101 544.709 203.958 545.246 205.452" stroke="#4A63FE" stroke-linejoin="round"/>
<path d="M546.337 208.641C550.463 220.88 558.899 249.437 549.004 253.298C539.108 257.159 528.877 280.025 525.221 289.309" stroke="#4A63FE" stroke-linejoin="round" stroke-dasharray="3.02 2.01"/>
<path d="M524.603 290.886C524.033 292.364 523.714 293.22 523.714 293.22C523.714 293.22 523.563 292.313 523.312 290.752" stroke="#4A63FE" stroke-linejoin="round"/>
<path d="M522.834 287.496C521.156 276.13 518.104 250.561 521.274 235.083C524.326 220.192 535.346 209.9 540.998 205.519" stroke="#4A63FE" stroke-linejoin="round" stroke-dasharray="2.94 1.96"/>
<path d="M617.854 204.528C616.579 203.588 615.791 203.101 615.791 203.101C615.791 203.101 615.455 203.958 614.936 205.452" stroke="#4A63FE" stroke-linejoin="round"/>
<path d="M613.842 208.641C609.699 220.88 601.28 249.437 611.175 253.298C621.071 257.159 631.302 280.025 634.941 289.309" stroke="#4A63FE" stroke-linejoin="round" stroke-dasharray="3.02 2.01"/>
<path d="M635.578 290.886C636.148 292.364 636.467 293.22 636.467 293.22C636.467 293.22 636.617 292.313 636.869 290.752" stroke="#4A63FE" stroke-linejoin="round"/>
<path d="M637.318 287.496C638.995 276.13 642.047 250.561 638.877 235.083C635.825 220.192 624.789 209.9 619.153 205.519" stroke="#4A63FE" stroke-linejoin="round" stroke-dasharray="2.94 1.96"/>
<path d="M579.91 116.608V91.1401" stroke="#202263" stroke-width="2" stroke-linecap="round" stroke-linejoin="round"/>
<path d="M607.741 254.272C609.418 285.33 580.101 304.166 580.101 304.166C580.101 304.166 552.427 285.867 552.477 254.272C552.494 239.968 606.97 239.985 607.741 254.272Z" stroke="white" stroke-miterlimit="10"/>
<path d="M580.193 294.194C573.484 288.284 560.637 274.585 560.201 255.346C562.23 253.835 569.107 251.568 579.79 251.568C591.011 251.568 598.122 254.036 600.051 255.598C600.705 274.552 587.288 288.301 580.193 294.194Z" stroke="white" stroke-miterlimit="10"/>
<path d="M580.293 283.299C575.429 277.977 568.015 265.94 568.334 255.33C576.118 253.77 584.14 253.833 591.899 255.514C592.167 266.309 585.375 278.061 580.293 283.299Z" stroke="white" stroke-miterlimit="10"/>
<path d="M615.549 143.956C608.157 127.805 595.71 114.504 580.093 106.065C575.883 107.844 556.243 117.531 544.636 143.956C530.598 175.853 546.314 257.965 546.314 257.965H613.788C613.788 257.965 629.587 175.887 615.549 143.956Z" fill="#78A6FF"/>
<path d="M544.614 247.841H615.56C615.812 246.162 616.097 244.484 616.382 242.452H543.776C544.078 244.484 544.346 246.246 544.614 247.841Z" fill="white"/>
<path d="M585.738 173.765C593.353 170.628 596.986 161.906 593.852 154.283C590.718 146.661 582.004 143.025 574.389 146.162C566.774 149.299 563.141 158.021 566.275 165.644C569.409 173.266 578.123 176.902 585.738 173.765Z" fill="#4A63FE"/>
<g opacity="0.44">
<path opacity="0.44" d="M593.909 147.358L591.275 144.967L566.31 172.527L568.944 174.918L593.909 147.358Z" fill="white"/>
<path opacity="0.44" d="M596.973 150.462L595.271 148.917L570.305 176.477L572.007 178.022L596.973 150.462Z" fill="white"/>
<path opacity="0.44" d="M589.673 143.796L587.946 142.251L562.617 169.811L564.344 171.356L589.673 143.796Z" fill="white"/>
</g>
<path d="M580.061 139.743C576.08 139.743 572.189 140.924 568.879 143.138C565.569 145.352 562.989 148.498 561.466 152.179C559.943 155.86 559.544 159.911 560.321 163.819C561.097 167.727 563.014 171.316 565.829 174.134C568.644 176.951 572.23 178.87 576.134 179.647C580.038 180.425 584.085 180.026 587.763 178.501C591.44 176.976 594.584 174.394 596.795 171.081C599.007 167.768 600.187 163.873 600.187 159.889C600.187 154.546 598.067 149.421 594.292 145.643C590.518 141.865 585.398 139.743 580.061 139.743ZM580.061 174.847C577.11 174.85 574.225 173.977 571.771 172.339C569.316 170.7 567.402 168.369 566.272 165.641C565.141 162.914 564.844 159.911 565.419 157.015C565.994 154.118 567.414 151.457 569.501 149.369C571.587 147.28 574.245 145.859 577.139 145.283C580.033 144.708 583.032 145.005 585.758 146.137C588.483 147.268 590.811 149.184 592.448 151.641C594.085 154.098 594.958 156.986 594.954 159.939C594.954 163.893 593.385 167.685 590.592 170.48C587.799 173.276 584.011 174.847 580.061 174.847V174.847Z" stroke="#202263" stroke-miterlimit="10" stroke-dasharray="3 2"/>
<path d="M607.012 129.417C599.854 119.749 590.658 111.776 580.076 106.065C576.722 107.458 563.807 113.804 552.788 129.4L607.012 129.417Z" fill="#202263"/>
<path d="M549.636 134.235H610.334C610.116 133.882 609.881 133.53 609.646 133.177H550.357L549.636 134.235Z" fill="white"/>
<path d="M580.064 208.556C565.775 210.94 575.469 283.382 578.957 306.616C578.957 306.91 579.074 307.192 579.282 307.4C579.489 307.608 579.771 307.724 580.064 307.724C580.358 307.724 580.64 307.608 580.847 307.4C581.055 307.192 581.171 306.91 581.171 306.616C584.66 283.382 594.354 210.907 580.064 208.556Z" stroke="#4A63FE" stroke-miterlimit="10" stroke-dasharray="3.06 2.04"/>
<path d="M635 93.5405H655.462" stroke="#89B5F4" stroke-linejoin="round"/>
<path d="M635 97.2844H667.622" stroke="#89B5F4" stroke-linejoin="round"/>
<path d="M635 101.028H667.622" stroke="#89B5F4" stroke-linejoin="round"/>
<path d="M635 104.788H667.622" stroke="#89B5F4" stroke-linejoin="round"/>
<path d="M497.209 116.893H517.671" stroke="#89B5F4" stroke-linejoin="round"/>
<path d="M497.209 120.636H529.831" stroke="#89B5F4" stroke-linejoin="round"/>
<path d="M497.209 124.38H529.831" stroke="#89B5F4" stroke-linejoin="round"/>
<path d="M497.209 128.142H529.831" stroke="#89B5F4" stroke-linejoin="round"/>
<path d="M656.309 160.811H667.681" stroke="#89B5F4" stroke-linejoin="round"/>
<path d="M635 164.555H667.622" stroke="#89B5F4" stroke-linejoin="round"/>
<path d="M635 168.299H667.622" stroke="#89B5F4" stroke-linejoin="round"/>
<path d="M635 172.043H667.622" stroke="#89B5F4" stroke-linejoin="round"/>
<path d="M512.835 309.74H524.207" stroke="#89B5F4" stroke-linejoin="round"/>
<path d="M491.483 313.5H524.105" stroke="#89B5F4" stroke-linejoin="round"/>
<path d="M491.483 317.244H524.105" stroke="#89B5F4" stroke-linejoin="round"/>
<path d="M491.483 320.988H524.105" stroke="#89B5F4" stroke-linejoin="round"/>
<path d="M642.233 304.62H621.905" stroke="#89B5F4" stroke-linejoin="round"/>
<path d="M654.616 308.363H621.994" stroke="#89B5F4" stroke-linejoin="round"/>
<path d="M654.616 312.107H621.994" stroke="#89B5F4" stroke-linejoin="round"/>
<path d="M654.616 315.851H621.994" stroke="#89B5F4" stroke-linejoin="round"/>
<path d="M582.707 120.133H604.645V98.1742H629.015" stroke="#4A63FE" stroke-width="0.75" stroke-linejoin="round"/>
<path d="M582.705 121.376C583.39 121.376 583.946 120.82 583.946 120.134C583.946 119.448 583.39 118.891 582.705 118.891C582.02 118.891 581.464 119.448 581.464 120.134C581.464 120.82 582.02 121.376 582.705 121.376Z" fill="#4A63FE"/>
<path d="M559.913 159.938H510.837V133.363" stroke="#4A63FE" stroke-width="0.75" stroke-linejoin="round"/>
<path d="M561.191 159.971C561.187 159.64 561.053 159.324 560.817 159.092C560.582 158.859 560.264 158.729 559.934 158.729C559.604 158.729 559.289 158.86 559.056 159.093C558.823 159.326 558.692 159.642 558.692 159.971C558.692 160.303 558.823 160.62 559.055 160.856C559.287 161.092 559.603 161.226 559.934 161.231C560.266 161.226 560.583 161.092 560.818 160.857C561.053 160.622 561.187 160.304 561.191 159.971Z" fill="#4A63FE"/>
<path d="M530.822 232.497H501.471V304.166" stroke="#4A63FE" stroke-width="0.75" stroke-linejoin="round"/>
<path d="M532.053 232.497C532.053 232.167 531.922 231.851 531.69 231.618C531.457 231.386 531.141 231.255 530.812 231.255C530.483 231.255 530.167 231.386 529.934 231.618C529.702 231.851 529.571 232.167 529.571 232.497C529.571 232.826 529.702 233.142 529.934 233.375C530.167 233.608 530.483 233.739 530.812 233.739C531.141 233.739 531.457 233.608 531.69 233.375C531.922 233.142 532.053 232.826 532.053 232.497Z" fill="#4A63FE"/>
<path d="M578.934 231.321H606.39V304.166H618.566" stroke="#4A63FE" stroke-width="0.75" stroke-linejoin="round"/>
<path d="M580.173 231.322C580.173 230.993 580.042 230.677 579.81 230.444C579.577 230.211 579.261 230.08 578.932 230.08C578.603 230.08 578.287 230.211 578.054 230.444C577.822 230.677 577.691 230.993 577.691 231.322C577.691 231.652 577.822 231.968 578.054 232.201C578.287 232.434 578.603 232.565 578.932 232.565C579.261 232.565 579.577 232.434 579.81 232.201C580.042 231.968 580.173 231.652 580.173 231.322Z" fill="#4A63FE"/>
<path d="M629.408 226.621H649.35V176.39" stroke="#4A63FE" stroke-width="0.75" stroke-linejoin="round"/>
<path d="M629.405 228.149C630.09 228.149 630.646 227.592 630.646 226.906C630.646 226.22 630.09 225.664 629.405 225.664C628.719 225.664 628.164 226.22 628.164 226.906C628.164 227.592 628.719 228.149 629.405 228.149Z" fill="#4A63FE"/>
<path d="M701.721 38.0389H716.179" stroke="#0A0F17" stroke-miterlimit="10" stroke-linecap="round"/>
<path d="M764.624 267.248H779.082" stroke="#0A0F17" stroke-miterlimit="10" stroke-linecap="round"/>
<path d="M687.649 38.0389H696.253" stroke="#0A0F17" stroke-miterlimit="10" stroke-linecap="round"/>
<path d="M919.55 169.977H934.008" stroke="#0A0F17" stroke-miterlimit="10" stroke-linecap="round"/>
<path d="M905.479 169.977H914.083" stroke="#0A0F17" stroke-miterlimit="10" stroke-linecap="round"/>
<path d="M777.764 260.886H786.385" stroke="#0A0F17" stroke-miterlimit="10" stroke-linecap="round"/>
<path d="M326.346 237.114H340.804" stroke="#0A0F17" stroke-miterlimit="10" stroke-linecap="round"/>
<path d="M312.319 237.114H320.923" stroke="#0A0F17" stroke-miterlimit="10" stroke-linecap="round"/>
<path d="M298.397 129.418C298.397 129.942 298.241 130.455 297.95 130.891C297.659 131.328 297.245 131.668 296.761 131.868C296.277 132.069 295.744 132.122 295.23 132.019C294.716 131.917 294.243 131.664 293.873 131.293C293.502 130.922 293.25 130.45 293.148 129.935C293.045 129.421 293.098 128.887 293.298 128.403C293.499 127.918 293.839 127.504 294.274 127.212C294.71 126.921 295.223 126.765 295.747 126.765C296.449 126.765 297.124 127.045 297.62 127.542C298.117 128.039 298.397 128.714 298.397 129.418V129.418Z" stroke="#0A0F17" stroke-miterlimit="10" stroke-linecap="round"/>
<path d="M517.114 35.3867C517.114 35.9121 516.958 36.4256 516.666 36.8621C516.374 37.2987 515.959 37.6387 515.474 37.8389C514.989 38.0392 514.455 38.0907 513.941 37.987C513.426 37.8833 512.954 37.629 512.584 37.2563C512.214 36.8837 511.963 36.4095 511.863 35.8938C511.763 35.3782 511.817 34.8443 512.021 34.36C512.224 33.8756 512.566 33.4625 513.004 33.1731C513.442 32.8836 513.956 32.7309 514.481 32.7342C514.828 32.7342 515.172 32.8029 515.492 32.9364C515.813 33.0699 516.104 33.2656 516.349 33.5121C516.593 33.7586 516.787 34.0512 516.918 34.3729C517.05 34.6946 517.116 35.0392 517.114 35.3867V35.3867Z" stroke="#0A0F17" stroke-miterlimit="10" stroke-linecap="round"/>
<path d="M900.391 147.666C900.391 148.191 900.235 148.704 899.944 149.14C899.653 149.576 899.239 149.916 898.755 150.117C898.271 150.318 897.738 150.37 897.224 150.268C896.71 150.166 896.238 149.913 895.867 149.542C895.496 149.171 895.244 148.698 895.142 148.184C895.039 147.669 895.092 147.136 895.293 146.651C895.493 146.167 895.833 145.752 896.269 145.461C896.704 145.169 897.217 145.014 897.741 145.014C898.444 145.014 899.118 145.293 899.615 145.791C900.112 146.288 900.391 146.963 900.391 147.666V147.666Z" stroke="#0A0F17" stroke-miterlimit="10" stroke-linecap="round"/>
<path d="M726.376 238.138C726.376 238.662 726.221 239.175 725.93 239.611C725.638 240.047 725.225 240.387 724.74 240.588C724.256 240.789 723.723 240.841 723.209 240.739C722.695 240.637 722.223 240.384 721.852 240.013C721.482 239.642 721.229 239.17 721.127 238.655C721.025 238.14 721.077 237.607 721.278 237.122C721.478 236.638 721.818 236.224 722.254 235.932C722.69 235.641 723.202 235.485 723.726 235.485C724.075 235.483 724.42 235.55 724.743 235.682C725.065 235.815 725.358 236.01 725.605 236.257C725.851 236.504 726.047 236.797 726.179 237.12C726.311 237.443 726.378 237.789 726.376 238.138V238.138Z" stroke="#0A0F17" stroke-miterlimit="10" stroke-linecap="round"/>
<path d="M361.238 201.288V208.725" stroke="#0A0F17" stroke-miterlimit="10" stroke-linecap="round"/>
<path d="M364.939 204.998H357.509" stroke="#0A0F17" stroke-miterlimit="10" stroke-linecap="round"/>
<path d="M568.812 5.36938V12.8066" stroke="#0A0F17" stroke-miterlimit="10" stroke-linecap="round"/>
<path d="M572.558 9.07959H565.128" stroke="#0A0F17" stroke-miterlimit="10" stroke-linecap="round"/>
<path d="M397.684 63.3888V70.826" stroke="#0A0F17" stroke-miterlimit="10" stroke-linecap="round"/>
<path d="M401.384 67.1157H393.954" stroke="#0A0F17" stroke-miterlimit="10" stroke-linecap="round"/>
<path d="M745.18 120.67V128.107" stroke="#0A0F17" stroke-miterlimit="10" stroke-linecap="round"/>
<path d="M748.927 124.38H741.497" stroke="#0A0F17" stroke-miterlimit="10" stroke-linecap="round"/>
<path d="M917.998 300.456V307.893" stroke="#0A0F17" stroke-miterlimit="10" stroke-linecap="round"/>
<path d="M921.698 304.166H914.268" stroke="#0A0F17" stroke-miterlimit="10" stroke-linecap="round"/>
<path d="M360.852 261.743C361.957 264.264 362.29 267.058 361.807 269.769C361.324 272.48 360.048 274.987 358.139 276.971C356.231 278.955 353.777 280.326 351.089 280.912C348.4 281.498 345.599 281.271 343.039 280.26C340.48 279.25 338.278 277.501 336.713 275.236C335.148 272.971 334.291 270.291 334.25 267.538C334.208 264.784 334.985 262.08 336.481 259.769C337.978 257.458 340.126 255.644 342.654 254.557C346.021 253.11 349.823 253.052 353.231 254.398C356.64 255.744 359.379 258.384 360.852 261.743V261.743Z" stroke="#0A0F17" stroke-linecap="round" stroke-linejoin="round"/>
<path d="M351.125 274.166C340.105 278.917 327.342 281.553 325.413 277.07C323.887 273.545 330.629 268.324 334.336 265.873V267.887C328.264 271.9 328.331 274.183 328.935 275.576C330.042 278.145 338.026 278.094 350.554 272.672C363.083 267.249 368.618 261.491 367.511 258.922C366.89 257.495 365.264 255.884 358.202 257.562L356.743 256.287C364.073 254.608 369.842 254.809 370.966 257.428C372.828 261.911 362.161 269.398 351.125 274.166Z" stroke="#0A0F17" stroke-linecap="round" stroke-linejoin="round"/>
<path d="M839.114 98.219C840.527 87.3792 832.893 77.4459 822.063 76.0322C811.234 74.6186 801.31 82.2601 799.898 93.0998C798.486 103.94 806.12 113.873 816.949 115.286C827.778 116.7 837.702 109.059 839.114 98.219Z" stroke="#0A0F17" stroke-linecap="round" stroke-linejoin="round"/>
<path d="M816.384 105.965C799.997 101.113 783.628 92.3495 785.607 85.6678C787.15 80.4298 799.276 80.8664 805.566 81.5715L803.637 83.7204C793.339 82.5452 791.343 85.1138 790.722 87.1955C789.599 91.0064 798.387 98.2422 817.021 103.765C835.655 109.289 846.959 107.996 848.1 104.168C848.72 102.053 848.418 98.7962 839.16 94.1962L838.707 91.4597C848.335 96.2444 854.389 101.818 853.232 105.696C851.287 112.378 832.787 110.817 816.384 105.965Z" stroke="#0A0F17" stroke-linecap="round" stroke-linejoin="round"/>
<path d="M758.173 195.075L740.227 204.997L728.889 203.637L746.835 193.699L758.173 195.075Z" stroke="#0A0F17" stroke-linecap="round" stroke-linejoin="round"/>
<path d="M747.963 176.24L730.017 186.178L718.679 184.802L736.625 174.88L747.963 176.24Z" stroke="#0A0F17" stroke-linecap="round" stroke-linejoin="round"/>
<path d="M747.978 176.24L758.175 195.076" stroke="#0A0F17" stroke-linecap="round" stroke-linejoin="round"/>
<path d="M729.866 186.347L740.248 204.998" stroke="#0A0F17" stroke-linecap="round" stroke-linejoin="round"/>
<path d="M718.501 184.97L728.883 203.638" stroke="#0A0F17" stroke-linecap="round" stroke-linejoin="round"/>
<path d="M736.479 175.047L746.861 193.699" stroke="#0A0F17" stroke-linecap="round" stroke-linejoin="round"/>
<path d="M912.92 246.616L913.323 234.092L923 242.032L935.026 238.54L930.481 250.225L937.491 260.6L924.996 259.861L917.315 269.75L914.145 257.629L902.371 253.381L912.92 246.616Z" stroke="#0A0F17" stroke-linecap="round" stroke-linejoin="round"/>
<path d="M442.213 25.2966L449.458 18.1112L450.733 28.2345L459.79 32.9352L450.565 37.2666L448.921 47.3395L441.944 39.9023L431.864 41.4468L436.778 32.4987L432.2 23.3827L442.213 25.2966Z" stroke="#0A0F17" stroke-linecap="round" stroke-linejoin="round"/>
<path d="M348.155 95.6389L332.741 97.6871L312.497 83.8368L325.915 80.9828L348.155 95.6389Z" stroke="#0A0F17" stroke-linecap="round" stroke-linejoin="round"/>
<path d="M332.738 97.6873L344.378 67.5356L348.152 95.6391" stroke="#0A0F17" stroke-linecap="round" stroke-linejoin="round"/>
<path d="M312.497 83.837L344.381 67.5356L325.915 80.983" stroke="#0A0F17" stroke-linecap="round" stroke-linejoin="round"/>
<path d="M318.065 179.832C316 179.832 313.959 180.273 312.077 181.125C312.287 180.273 312.394 179.4 312.396 178.523C312.396 175.896 311.45 173.358 309.73 171.373C308.011 169.389 305.634 168.092 303.036 167.72C300.438 167.349 297.794 167.928 295.588 169.351C293.382 170.774 291.763 172.946 291.028 175.467C290.794 168.99 288.022 162.865 283.313 158.416C278.604 153.967 272.335 151.551 265.861 151.69C259.387 151.829 253.228 154.512 248.714 159.159C244.199 163.806 241.693 170.044 241.735 176.525C241.742 178.097 241.893 179.665 242.188 181.209C240.339 179.04 237.974 177.372 235.312 176.359C232.649 175.345 229.775 175.019 226.953 175.409C224.132 175.8 221.454 176.895 219.166 178.593C216.878 180.292 215.054 182.54 213.862 185.129C212.67 187.719 212.149 190.567 212.345 193.411C212.542 196.256 213.45 199.005 214.987 201.405C216.524 203.806 218.64 205.781 221.139 207.148C223.639 208.515 226.442 209.231 229.29 209.229H318.065C321.874 209.1 325.483 207.495 328.132 204.752C330.781 202.01 332.261 198.345 332.261 194.53C332.261 190.716 330.781 187.051 328.132 184.309C325.483 181.566 321.874 179.961 318.065 179.832Z" fill="#E1F1FF"/>
<path d="M953.244 386.327V409.831C953.244 412.907 952.023 415.858 949.849 418.033C947.676 420.209 944.728 421.431 941.654 421.431H768.197V374.726H941.637C943.161 374.724 944.67 375.023 946.078 375.605C947.486 376.187 948.765 377.041 949.843 378.118C950.921 379.196 951.776 380.475 952.36 381.884C952.943 383.292 953.244 384.802 953.244 386.327Z" fill="#2F40DD"/>
<g style="mix-blend-mode:multiply" opacity="0.55">
<path d="M937.287 374.726H933.178C936.253 374.726 939.203 375.948 941.379 378.123C943.555 380.298 944.78 383.249 944.784 386.327V409.831C944.78 412.909 943.555 415.859 941.379 418.034C939.203 420.21 936.253 421.431 933.178 421.431H937.287C940.363 421.431 943.312 420.21 945.488 418.034C947.664 415.859 948.889 412.909 948.894 409.831V386.327C948.889 383.249 947.664 380.298 945.488 378.123C943.312 375.948 940.363 374.726 937.287 374.726Z" fill="#2F40DD"/>
</g>
<g style="mix-blend-mode:multiply" opacity="0.55">
<path d="M912.473 374.726H908.364C911.437 374.731 914.382 375.954 916.554 378.129C918.727 380.304 919.949 383.252 919.954 386.327V409.831C919.949 412.906 918.727 415.854 916.554 418.029C914.382 420.203 911.437 421.427 908.364 421.431H912.473C915.546 421.427 918.491 420.203 920.664 418.029C922.836 415.854 924.058 412.906 924.063 409.831V386.327C924.058 383.252 922.836 380.304 920.664 378.129C918.491 375.954 915.546 374.731 912.473 374.726Z" fill="#2F40DD"/>
</g>
<path d="M910.938 386.327V409.831C910.938 411.354 910.639 412.862 910.056 414.27C909.474 415.677 908.62 416.956 907.544 418.033C906.468 419.111 905.19 419.965 903.784 420.548C902.378 421.131 900.871 421.431 899.349 421.431H731.477V374.726H899.399C902.464 374.74 905.399 375.968 907.562 378.142C909.724 380.316 910.939 383.259 910.938 386.327Z" fill="#4A63FE"/>
<path d="M731.508 380.284H899.397C900.998 380.284 902.534 380.92 903.666 382.054C904.799 383.187 905.435 384.724 905.435 386.327V409.831C905.435 410.624 905.279 411.41 904.975 412.144C904.672 412.877 904.227 413.543 903.666 414.104C903.106 414.666 902.44 415.111 901.708 415.415C900.975 415.718 900.19 415.875 899.397 415.875H731.508V380.284Z" fill="#E9F1FF"/>
<path d="M905.457 389.366H743.539" stroke="#BBD8F9" stroke-miterlimit="10"/>
<path d="M905.461 398.046H843.153" stroke="#BBD8F9" stroke-miterlimit="10"/>
<path d="M905.47 406.288H751.352" stroke="#BBD8F9" stroke-miterlimit="10"/>
<path d="M834.745 398.046H772.437" stroke="#BBD8F9" stroke-miterlimit="10"/>
<path d="M932.114 339.673V363.176C932.114 366.253 930.893 369.204 928.72 371.379C926.546 373.555 923.598 374.777 920.525 374.777H747.084V328.055H920.525C922.048 328.055 923.556 328.356 924.964 328.94C926.371 329.524 927.649 330.38 928.726 331.459C929.802 332.538 930.655 333.819 931.237 335.228C931.818 336.638 932.116 338.148 932.114 339.673Z" fill="#78A6FF"/>
<path d="M916.202 328.072H912.093C915.167 328.077 918.114 329.3 920.289 331.474C922.464 333.648 923.69 336.596 923.699 339.673V363.176C923.695 366.256 922.47 369.209 920.295 371.386C918.119 373.564 915.17 374.789 912.093 374.794H916.202C919.279 374.789 922.228 373.564 924.404 371.386C926.58 369.209 927.804 366.256 927.808 363.176V339.673C927.799 336.596 926.573 333.648 924.398 331.474C922.223 329.3 919.276 328.077 916.202 328.072Z" fill="#2E82FF"/>
<path d="M891.388 328.072H887.278C890.351 328.077 893.296 329.3 895.468 331.475C897.641 333.649 898.863 336.598 898.868 339.673V363.176C898.868 366.255 897.647 369.207 895.474 371.385C893.301 373.564 890.354 374.789 887.278 374.794H891.388C894.463 374.789 897.411 373.564 899.584 371.385C901.757 369.207 902.977 366.255 902.977 363.176V339.673C902.973 336.598 901.75 333.649 899.578 331.475C897.405 329.3 894.46 328.077 891.388 328.072Z" fill="#2E82FF"/>
<path d="M889.897 339.673V363.177C889.897 366.253 888.676 369.204 886.502 371.38C884.329 373.555 881.381 374.777 878.307 374.777H710.419V328.022H878.307C879.834 328.022 881.345 328.324 882.754 328.91C884.163 329.496 885.443 330.355 886.52 331.438C887.597 332.52 888.45 333.805 889.029 335.218C889.609 336.632 889.903 338.146 889.897 339.673Z" fill="#5AC4FF"/>
<path d="M710.421 333.629H878.31C879.911 333.629 881.447 334.266 882.58 335.4C883.712 336.533 884.348 338.07 884.348 339.673V363.177C884.348 363.97 884.192 364.756 883.888 365.49C883.585 366.223 883.14 366.889 882.58 367.45C882.019 368.011 881.353 368.457 880.621 368.76C879.888 369.064 879.103 369.22 878.31 369.22H710.421V333.629Z" fill="#D7F5FF"/>
<path d="M884.325 342.695H722.407" stroke="#9FEEFF" stroke-miterlimit="10"/>
<path d="M884.33 351.391H822.022" stroke="#9FEEFF" stroke-miterlimit="10"/>
<path d="M884.339 359.634H730.22" stroke="#9FEEFF" stroke-miterlimit="10"/>
<path d="M917.902 379.321C917.605 379.638 917.408 380.03 917.336 380.452C917.264 380.873 917.318 381.306 917.494 381.698C918.087 383.281 920.045 385.049 922.317 386.817C922.598 387.043 922.879 387.249 923.093 387.44L923.265 387.589C923.313 387.63 923.355 387.671 923.4 387.706C925.52 389.61 924.722 390.032 928.532 393.866C932.875 398.237 935.864 398.316 936.716 397.916C937.436 397.579 935.974 395.259 934.354 392.653L934.118 392.275C933.901 391.93 933.687 391.576 933.474 391.228C931.572 388.092 932.067 386.621 932.512 381.957C932.877 378.149 938.612 360.77 938.612 360.77L930.287 359.386C930.287 359.386 927.781 373.235 925.02 375.367C923.543 376.504 921.889 376.517 920.469 377.36L920.188 377.543C919.347 378.034 918.578 378.632 917.902 379.321Z" fill="#E49963"/>
<path d="M917.893 379.681C917.6 379.992 917.407 380.377 917.336 380.79C917.264 381.203 917.318 381.628 917.491 382.013C918.206 383.565 920.087 385.291 922.251 387.017C922.528 387.244 922.783 387.449 923.007 387.644L923.176 387.791C923.223 387.831 923.265 387.871 923.309 387.905C925.398 389.773 924.612 390.186 928.366 393.947C932.644 398.234 935.589 398.311 936.429 397.919C937.138 397.589 935.697 395.313 934.101 392.758C931.108 391.633 928.476 389.767 926.473 387.348C923.897 384.181 922.179 380.113 920.422 377.745L920.145 377.923C919.316 378.409 918.558 379 917.893 379.681Z" fill="#103BB2"/>
<path d="M984.337 374.535C984.835 377.075 988.38 376.652 992.341 375.648C996.302 374.643 995.36 375.837 1001 375.197C1006.64 374.557 1008.35 372.415 1008.52 371.555C1008.67 370.796 1005.88 370.529 1002.9 370.164C1002.52 370.123 1002.14 370.075 1001.76 370.028C998.391 369.594 995.921 367.371 992.856 365.543C989.954 363.813 985.622 356.763 985.622 356.763L977.893 357.389C977.893 357.389 981.949 363.685 983.518 366.423C984.441 368.033 984.392 370.162 984.277 371.809C984.176 372.716 984.197 373.633 984.337 374.535Z" fill="#E49963"/>
<path d="M992.121 375.621C996.136 374.586 995.182 375.819 1000.9 375.149C1006.61 374.479 1008.35 372.234 1008.52 371.334C1008.67 370.538 1005.85 370.258 1002.82 369.876L1002.79 369.938C1000.34 371.598 997.515 372.526 994.608 372.625C990.744 372.724 986.624 371.552 983.948 371.599C983.848 372.541 983.868 373.493 984.008 374.429C984.502 377.105 988.106 376.662 992.121 375.621Z" fill="#103BB2"/>
<path d="M966.574 260.883C966.574 260.883 968.466 256.589 970.545 256.415C972.624 256.242 979.242 255.276 979.714 256.156C980.186 257.037 979.714 260.186 978.297 261.336C976.88 262.486 968.086 264.315 968.086 264.315L966.574 260.883Z" fill="#E49963"/>
<path d="M953.917 325.166L937.186 369.835C935.493 369.96 933.792 369.806 932.15 369.379C929.883 368.728 927.283 367.028 927.283 367.028C927.283 367.028 931.434 324.135 939.039 315.226C946.645 306.317 953.917 325.166 953.917 325.166Z" fill="#091E89"/>
<path d="M887.352 307.065C887.352 307.065 935.812 290.852 946.62 294.3C957.428 297.749 989.884 361.622 989.884 361.622C989.884 361.622 989.151 362.587 987.153 363.329C985.293 364.018 980.793 363.975 980.793 363.975C980.793 363.975 951.506 339.141 948.02 331.898C944.534 324.654 943.14 317.754 939.654 318.447C936.168 319.139 894.679 335.349 885.266 325.688C875.852 316.026 878.313 303.482 878.313 303.482L887.352 307.065Z" fill="#103BB2"/>
<path d="M916.723 231.536C917.494 229.959 918.369 227.16 918.778 222.169C918.712 222.664 917.842 228.964 915.4 232.52C905.364 239.043 886.126 260.839 886.505 264.97C886.505 264.97 879.729 253.587 879.614 253.519C879.614 253.519 867.114 237.776 881.928 228.758C889.458 224.175 889.42 218.293 889.104 213.184C888.788 208.074 891.157 186.076 906.239 191.833C906.239 191.833 908.663 190.768 909.747 190.928C909.747 190.928 908.86 191.094 908.41 191.556C910.158 191.453 912.658 191.58 914.744 192.755C920.274 195.867 925.222 223.787 916.723 231.536Z" fill="#B5453C"/>
<path d="M914.632 233.044C914.681 233.065 909.864 235.568 906.238 234.577C902.83 233.646 900.602 229.228 900.651 229.218C902.093 228.931 902.511 226.947 902.479 218.418L903.132 218.547L914.103 220.707C914.103 220.707 913.855 224.161 913.847 227.414C913.841 230.163 914.006 232.752 914.632 233.044Z" fill="#E49963"/>
<path d="M914.633 220.502C914.633 220.502 914.377 223.817 914.368 226.941C908.033 226.775 904.684 221.396 903.314 218.418L914.633 220.502Z" fill="#BA703F"/>
<path d="M902.106 217.107C902.106 217.107 898.861 211.934 898.082 207.51C897.537 204.353 899.12 192.646 910.784 194.322C913.133 194.65 915.38 195.506 917.358 196.828C919.889 198.553 923.545 202.276 919.458 212.489L918.396 215.94L902.106 217.107Z" fill="#B5453C"/>
<path d="M916.346 223.663C916.346 223.663 901.497 223.907 901.486 214.715C901.475 205.523 899.554 199.354 909.032 198.806C918.51 198.257 920.348 201.768 921.113 204.84C921.877 207.913 920.208 223.364 916.346 223.663Z" fill="#E49963"/>
<path d="M915.968 198.667C915.968 198.667 911.89 209.555 905.631 211.163C899.372 212.772 896.659 211.097 896.659 211.097C896.659 211.097 901.459 207.281 902.456 200.624C902.456 200.624 912.893 193.486 915.968 198.667Z" fill="#B5453C"/>
<path d="M914.64 199.799C914.64 199.799 917.868 202.137 918.654 204.411C919.441 206.685 919.796 211.362 921.295 211.202C921.295 211.202 924.552 204.086 920.893 200.06C917.014 195.791 914.64 199.799 914.64 199.799Z" fill="#B5453C"/>
<path d="M881.74 272.202C880.274 266.142 885.268 254.379 890.481 244.641C895.213 235.818 900.122 228.657 900.565 228.915C913.041 236.205 914.17 230.144 914.17 230.144C914.17 230.144 925.515 231.626 928.711 237.066C933.139 244.584 937.984 267.152 942.735 266.82C944.916 266.665 966.856 258.547 966.856 258.547C966.856 258.547 970.508 261.919 969.808 266.054C969.808 266.054 958.978 273.197 949.816 277.751C944.971 280.162 940.593 281.837 938.535 281.371C934.362 280.404 927.843 270.879 924.32 265.273L924.295 265.234C919.801 290.295 925.914 295.991 922.82 298.633C919.552 301.423 914.884 297.304 904.613 301.687C897.878 304.564 888.531 308.723 882.238 309.445C878.937 309.826 876.474 309.262 875.672 307.067C873.334 300.69 884.538 283.758 881.74 272.202Z" fill="#12AAFF"/>
<path d="M913.312 217.945C913.312 217.945 913.575 219.253 916.366 219.053C916.366 219.053 918.711 218.883 918.637 217.443C918.637 217.443 916.366 216.418 913.312 217.945Z" fill="white"/>
<path d="M875.675 307.06C876.48 309.262 878.951 309.827 882.264 309.445C886.635 307.574 905.515 300.376 905.312 295.499C904.998 288.282 901.683 288.053 904.023 279.142C905.906 271.987 888.473 258.684 885.677 255.791C880.445 265.557 880.301 266.019 881.772 272.097C884.574 283.685 873.331 300.665 875.675 307.06Z" fill="#4A63FE"/>
<path d="M924.624 265.527C928.12 271.013 934.589 280.336 938.73 281.282C940.773 281.749 945.117 280.099 949.926 277.739C946.416 278.619 943.009 278.595 939.694 278.273C936.105 277.937 935.062 273.663 929.388 267.254C925.709 263.109 924.805 264.157 924.624 265.527Z" fill="#D56A1B"/>
<path d="M906.916 279.316C906.916 279.316 910.046 276.95 913.006 277.514C915.966 278.078 917.407 280.051 917.297 280.952C917.187 281.853 915.616 284.39 913.355 284.617C911.094 284.845 904.652 283.262 904.652 283.262L906.916 279.316Z" fill="#E49963"/>
<path d="M900.549 228.909C900.549 228.909 888.548 229.649 884.402 235.456C878.553 243.63 868.397 277.006 871.167 284.64L907.678 284.486C907.678 284.486 908.562 280.342 907.33 278.337C906.099 276.332 886.093 273.092 885.163 272.168C884.232 271.243 896.717 254.119 896.717 251.343C896.717 248.567 900.549 228.909 900.549 228.909Z" fill="#12AAFF"/>
<path d="M918.078 267.593H962.575L954.542 295.131H909.974L918.078 267.593Z" fill="#4A63FE"/>
<path d="M895.998 294.475H954.591V295.131H895.998V294.475Z" fill="#163560"/>
<path d="M937.342 281.035C937.482 280.58 937.754 280.179 938.122 279.886C938.49 279.593 938.936 279.422 939.401 279.395C940.284 279.395 940.794 280.13 940.542 281.035C940.402 281.49 940.13 281.89 939.763 282.182C939.395 282.475 938.95 282.646 938.485 282.673C937.602 282.67 937.089 281.938 937.342 281.035Z" fill="#163560"/>
<path d="M813.614 351.391H751.306" stroke="#9FEEFF" stroke-miterlimit="10"/>
<path d="M855.235 403.417C855.267 403.407 855.295 403.39 855.315 403.368C855.335 403.345 855.346 403.319 855.346 403.291C855.346 403.264 855.335 403.237 855.315 403.215C855.295 403.192 855.267 403.175 855.235 403.165C855.209 403.158 855.181 403.155 855.154 403.158C855.127 403.161 855.101 403.169 855.078 403.181C855.055 403.193 855.037 403.21 855.024 403.229C855.012 403.248 855.005 403.27 855.005 403.291C855.005 403.313 855.012 403.334 855.024 403.353C855.037 403.372 855.055 403.389 855.078 403.401C855.101 403.414 855.127 403.421 855.154 403.424C855.181 403.427 855.209 403.424 855.235 403.417Z" fill="#1C76FE"/>
<path d="M822.736 414.901L853.479 400.882L852.322 398.431L821.579 412.45L822.736 414.901Z" fill="#212237"/>
<path d="M843.322 390.122L846.274 389.551C847.726 391.232 849.092 392.986 850.366 394.806C851.132 395.942 851.773 397.158 852.278 398.432L821.535 412.45C821.535 412.45 821.669 410.486 827.053 402.847C828.293 401.161 829.224 399.268 829.804 397.257L843.322 390.122Z" fill="#4A63FE"/>
<path d="M841.839 379.176L846.267 389.551C846.267 389.551 845.68 391.7 840.464 394.067C837.058 395.579 833.473 396.651 829.797 397.257L821.579 381.442" fill="#B6E5FF"/>
<path d="M839.56 421.323L873.339 421.287L873.337 419.055L839.558 419.09L839.56 421.323Z" fill="#212237"/>
<path d="M868.478 407.329L871.413 408.017C872.038 410.15 872.553 412.313 872.956 414.498C873.216 416.017 873.329 417.557 873.292 419.098H839.513C839.513 419.098 840.402 416.882 848.452 412.164C850.278 411.132 851.903 409.778 853.249 408.169L868.478 407.329Z" fill="#4A63FE"/>
<path d="M871.625 396.753L871.373 408.035C871.373 408.035 869.948 409.713 864.211 409.713C860.494 409.663 856.797 409.144 853.209 408.169L852.253 390.373" fill="#B6E5FF"/>
<path d="M818.524 230.549C818.524 230.549 796.956 285.715 795.044 311.787C793.131 337.86 819.229 394.352 819.229 394.352L848.379 382.6C848.379 382.6 828.521 332.319 831.607 316.807C834.693 301.295 847.741 267.148 847.741 267.148L851.448 226.167" fill="#202263"/>
<path d="M870.559 234.142C879.431 250.93 876.631 313.6 875.708 334.132C874.786 354.664 876.949 401.789 876.949 401.789H843.673C843.673 401.789 837.988 350.786 835.958 325.151C834.281 302.856 829.903 264.428 832.604 238.792" fill="#202263"/>
<path d="M865.525 248.059C871.899 287.915 869.098 303.461 868.712 332.941C868.326 362.421 871.161 401.773 871.161 401.773" stroke="#4D59A3" stroke-width="0.5" stroke-miterlimit="10"/>
<path d="M843.064 395.511L876.558 395.041" stroke="#4D59A3" stroke-width="0.5" stroke-miterlimit="10"/>
<path d="M852.608 250.746C853.162 261.373 867.116 259.845 867.116 259.845" stroke="#4D59A3" stroke-width="0.5" stroke-miterlimit="10"/>
<path d="M831.289 251.4C830.182 273.326 833.821 306.499 833.821 306.499" stroke="#4D59A3" stroke-width="0.5" stroke-miterlimit="10"/>
<path d="M825.562 252.693C825.026 268.608 831.214 268.692 831.214 268.692" stroke="#4D59A3" stroke-width="0.5" stroke-miterlimit="10"/>
<path d="M818.572 252.879C816.307 259.359 808.793 257.613 808.793 257.613" stroke="#4D59A3" stroke-width="0.5" stroke-miterlimit="10"/>
<path d="M832.762 294.396C828.832 302.576 826.157 311.303 824.829 320.283C823.353 333.227 838.934 368.23 838.934 368.23" stroke="#4D59A3" stroke-width="0.5" stroke-miterlimit="10"/>
<path d="M816.606 387.923L840.96 378.572" stroke="#4D59A3" stroke-width="0.5" stroke-miterlimit="10"/>
<path d="M830.674 139.524C830.674 139.524 825.743 152.3 829.785 156.581C831.898 158.797 838.171 159.317 840.972 157.219C843.001 155.658 846.188 145.82 845.081 144.057C840.888 137.342 830.674 139.524 830.674 139.524Z" fill="#F2B98F"/>
<path d="M845.877 152.618L846.817 166.049C845.872 167.018 844.731 167.774 843.471 168.267C842.211 168.759 840.86 168.977 839.509 168.906C838.158 168.834 836.838 168.475 835.637 167.852C834.436 167.229 833.381 166.357 832.543 165.294L833.583 156.564L845.877 152.618Z" fill="#F2B98F"/>
<path d="M849.205 149.496C849.742 146.759 851.117 145.265 850.882 142.092C850.896 141.216 850.604 140.362 850.056 139.678C849.507 138.995 848.738 138.524 847.88 138.348C847.88 138.348 847.545 136.67 844.794 135.511C842.043 134.353 832.433 131.969 828.022 135.763C827.166 136.502 826.261 141.001 829.481 142.025C834.731 143.704 841.876 140.732 843.234 144.09C843.599 145.172 843.657 146.334 843.402 147.448C843.402 147.901 843.301 148.253 843.284 148.572L844.962 149.294C846.991 150.151 843.704 154.096 844.308 155.54C844.609 156.312 846.27 156.329 847.545 155.405C848.819 154.482 848.618 152.467 849.205 149.496Z" fill="#212237"/>
<path d="M844.065 149.63C845.34 147.665 846.531 147.85 847.269 148.79C848.242 150.049 846.799 153.004 846.044 153.558C844.535 154.683 843.21 154.7 842.975 153.407" fill="#F2B98F"/>
<path d="M846.859 165.848C844.526 167.331 841.807 168.091 839.044 168.03C834.18 168.03 832.637 165.126 832.637 165.126C832.637 165.126 813.416 165.629 803.789 174.88C793.256 184.953 783.008 206.089 791.226 219.788C799.445 233.488 822.406 216.431 822.406 216.431" fill="#4A63FE"/>
<path d="M826.161 168.937C811.301 164.791 809.859 248.329 809.859 248.329C819.469 254.305 876.796 252.375 876.796 252.375C876.796 252.375 882.415 203.79 864.687 174.88C861.215 169.239 846.841 165.848 846.841 165.848C846.841 165.848 836.594 171.842 826.161 168.937Z" fill="#4A63FE"/>
<path d="M788.906 159.334L808.01 155.674L822.081 236.258C822.081 236.258 820.639 240.102 814.668 241.294C813.053 241.679 811.376 241.721 809.744 241.417C808.112 241.113 806.561 240.471 805.192 239.532L788.906 159.334Z" fill="#C0E8FF"/>
<path d="M795.87 150.47C795.87 150.47 805.514 148.908 807.762 153.962C810.009 159.015 804.81 161.869 800.415 162.994C796.021 164.118 787.652 163.766 789.178 157.655C790.52 152.283 799.376 152.249 801.388 153.726C803.401 155.204 803.652 158.763 797.9 159.586C792.147 160.408 794.227 155.506 797.195 155.321" fill="#88F1FF"/>
<path d="M794.389 158.763C794.389 158.763 796.284 161.197 800.091 159.367C803.899 157.538 804.066 150.738 794.439 153.273C784.812 155.808 788.619 164.253 795.395 163.749L794.389 158.763Z" fill="#5FD9FF"/>
<path d="M797.641 160.073L796.735 155.322C796.735 155.322 793.833 156.413 794.068 158.159C794.353 160.324 797.641 160.073 797.641 160.073Z" fill="#376DF7"/>
<path d="M794.1 158.327L795.123 163.766C798.123 163.827 801.094 163.177 803.794 161.869L802.604 155.674C802.615 156.649 802.267 157.593 801.627 158.327C800.986 159.061 800.098 159.533 799.132 159.653C795.375 160.627 794.1 158.327 794.1 158.327Z" fill="#A4BDFF"/>
<path d="M812.922 165.36L826.843 164.84L828.52 234.897C827.94 235.903 827.099 236.734 826.087 237.302C825.074 237.869 823.927 238.152 822.767 238.12C821.536 238.195 820.305 237.985 819.168 237.508C818.031 237.031 817.019 236.298 816.209 235.367L812.922 165.36Z" fill="#D7F5FF"/>
<path d="M818.74 158.864C818.74 158.864 825.734 158.864 826.824 163.414C827.914 167.964 823.923 169.726 820.686 170.129C817.449 170.532 811.562 169.072 813.272 164.102C814.765 159.737 821.055 160.896 822.329 162.423C823.604 163.951 823.403 166.99 819.243 166.906C815.084 166.822 817.063 162.978 819.243 163.196" fill="#88F1FF"/>
<path d="M816.878 165.579C817.253 166.265 817.876 166.78 818.619 167.017C819.362 167.255 820.169 167.197 820.87 166.855C823.755 165.831 824.577 160.14 817.516 160.946C810.455 161.751 812.266 169.457 817.113 169.944L816.878 165.579Z" fill="#5FD9FF"/>
<path d="M819.044 167.158L818.876 163.028C818.876 163.028 816.712 163.565 816.695 165.076C816.679 166.923 819.044 167.158 819.044 167.158Z" fill="#376DF7"/>
<path d="M816.695 165.21L816.846 169.944C818.963 170.408 821.169 170.257 823.203 169.508L823.002 164.102C822.948 164.852 822.627 165.557 822.098 166.09C821.568 166.623 820.865 166.948 820.117 167.006C819.426 167.165 818.702 167.071 818.074 166.742C817.447 166.412 816.958 165.869 816.695 165.21Z" fill="#A4BDFF"/>
<path d="M840.917 166.233L857.689 171.69L834.913 237.97C834.913 237.97 832.145 240.236 826.896 238.524C825.456 238.128 824.11 237.447 822.937 236.521C821.765 235.595 820.79 234.444 820.069 233.134L840.917 166.233Z" fill="#C0E8FF"/>
<path d="M850.213 162.642C850.213 162.642 858.599 165.613 858.23 170.364C857.861 175.115 852.544 175.015 848.569 173.974C844.594 172.933 838.053 169.055 841.861 165.143C845.215 161.785 852.259 165.479 853.249 167.46C854.238 169.441 852.913 172.194 847.982 170.331C843.051 168.467 846.792 165.714 849.224 166.839" fill="#88F1FF"/>
<path d="M845.556 168.165C845.556 168.165 846.042 170.801 849.849 171.069C853.657 171.338 856.659 166.335 847.904 164.085C839.149 161.836 838.646 169.793 844.248 172.328L845.556 168.165Z" fill="#5FD9FF"/>
<path d="M847.585 170.616L848.877 166.687C848.877 166.687 846.093 166.268 845.522 167.661C844.852 169.306 847.585 170.616 847.585 170.616Z" fill="#376DF7"/>
<path d="M845.577 167.712L844.084 172.211C846.453 173.543 849.089 174.329 851.8 174.511L853.477 169.374C853.477 169.374 852.437 171.741 849.015 170.851C845.594 169.961 845.577 167.712 845.577 167.712Z" fill="#A4BDFF"/>
<path d="M825.751 198.148C827.563 196.704 834.959 190.929 835.312 191.433C835.664 191.936 833.232 194.505 833.55 194.656C833.869 194.807 836.217 193.313 837.391 192.339C838.565 191.365 840.243 190.224 840.746 190.66C841.568 191.433 835.815 196.15 835.815 196.15C836.066 196.385 841.064 189.922 841.819 190.476C842.926 191.298 837.123 197.695 837.157 198.131C837.157 198.131 840.645 191.181 841.45 191.785C842.255 192.389 839.303 198.668 837.827 200.179C838.817 198.769 840.511 193.33 841.182 193.766C841.853 194.203 839.907 198.618 839.505 199.189C837.306 202.074 834.727 204.649 831.84 206.844" fill="#F2B98F"/>
<path d="M793.389 202.514C806.052 202.245 830.103 191.501 830.103 191.501L839.63 204.931C839.63 204.931 817.977 224.087 798.958 224.96L793.389 202.514Z" fill="#4A63FE"/>
<path d="M827.48 213.728L839.623 204.931L830.096 191.501C830.096 191.501 812.268 199.895 795.831 202.329" stroke="#6E94FF" stroke-width="0.5" stroke-miterlimit="10"/>
<path d="M820.896 233.235C818.582 233 808.082 232.111 808.049 232.732C808.015 233.353 811.403 234.192 811.286 234.494C811.168 234.797 808.317 234.813 806.808 234.612C805.298 234.41 803.269 234.377 803.118 234.948C802.833 236.056 810.212 236.912 810.212 236.912C810.128 237.248 802.447 234.494 802.111 235.384C801.625 236.677 809.944 238.927 810.162 239.296C810.162 239.296 803.453 235.334 803.118 236.291C802.782 237.248 808.636 240.924 810.665 241.327C809.072 240.673 804.711 236.996 804.443 237.701C804.174 238.406 808.149 241.059 808.82 241.327C812.405 242.592 816.147 243.354 819.94 243.594" fill="#F2B98F"/>
<path d="M856.692 245.742C867.561 239.363 878.043 222.239 879.217 204.997C879.989 193.682 872.425 179.16 862.714 172.697" fill="#4A63FE"/>
<path d="M845.297 223.683C835.721 227.626 825.744 230.508 815.543 232.279L813.01 252.173C821.145 252.811 842.848 252.928 857.859 245.189" fill="#4A63FE"/>
<path d="M831.877 251.921C831.877 251.921 851.014 249.235 857.857 245.206C869.262 238.491 873.941 224.976 873.941 224.976" stroke="#6E94FF" stroke-width="0.5" stroke-miterlimit="10"/>
<path d="M815.541 232.279C815.541 232.279 836.456 228.72 846.871 222.844C855.123 218.194 856.717 195.177 856.717 195.177" stroke="#6E94FF" stroke-width="0.5" stroke-miterlimit="10"/>
<path d="M674.676 341.453C674.178 341.455 673.694 341.29 673.299 340.987C672.904 340.683 672.622 340.256 672.495 339.774L664.193 308.28C664.107 307.946 664.098 307.597 664.168 307.259C664.238 306.921 664.384 306.604 664.596 306.332C664.802 306.055 665.071 305.831 665.379 305.676C665.688 305.522 666.028 305.442 666.373 305.442H706.341C706.839 305.444 707.321 305.609 707.715 305.912C708.11 306.216 708.393 306.641 708.522 307.121L716.824 338.616C716.912 338.952 716.921 339.304 716.851 339.645C716.782 339.986 716.635 340.306 716.421 340.58C716.211 340.852 715.942 341.072 715.634 341.223C715.326 341.375 714.987 341.453 714.644 341.453H674.676Z" fill="#4A63FE"/>
<path d="M714.751 339.841H674.699C674.556 339.841 674.417 339.793 674.305 339.705C674.192 339.617 674.112 339.493 674.079 339.354L665.793 307.859C665.764 307.765 665.757 307.666 665.774 307.569C665.791 307.472 665.83 307.381 665.889 307.302C665.948 307.223 666.025 307.16 666.113 307.116C666.201 307.073 666.299 307.052 666.397 307.053H706.365C706.506 307.052 706.643 307.098 706.755 307.183C706.867 307.268 706.948 307.388 706.985 307.524L715.288 339.035C715.31 339.124 715.313 339.216 715.298 339.305C715.282 339.395 715.248 339.481 715.197 339.557C715.147 339.633 715.081 339.697 715.004 339.746C714.927 339.795 714.841 339.827 714.751 339.841Z" fill="#C7E2FF"/>
<g style="mix-blend-mode:multiply">
<path d="M702.702 329.331H674.844L670.114 311.318H697.956L702.702 329.331Z" fill="#C7E2FF"/>
</g>
<path d="M703.724 327.585H675.882L671.136 309.571H698.994L703.724 327.585Z" fill="#F0F8FF"/>
<g opacity="0.35">
<path opacity="0.35" d="M706.385 312.51H670.292V313.786H706.385V312.51Z" fill="#A4D0FF"/>
<path opacity="0.35" d="M706.385 316.137H670.292V317.413H706.385V316.137Z" fill="#A4D0FF"/>
<path opacity="0.35" d="M706.385 319.745H670.292V321.021H706.385V319.745Z" fill="#A4D0FF"/>
<path opacity="0.35" d="M706.385 323.372H670.292V324.648H706.385V323.372Z" fill="#A4D0FF"/>
</g>
<g style="mix-blend-mode:multiply">
<path d="M709.594 337.926H683.06L678.548 320.769H705.082L709.594 337.926Z" fill="#C7E2FF"/>
</g>
<path d="M710.632 336.265H684.082L679.57 319.091H706.103L710.632 336.265Z" fill="#F0F8FF"/>
<path d="M713.127 321.911H678.727V323.12H713.127V321.911Z" fill="#C7E2FF"/>
<path d="M713.127 325.353H678.727V326.561H713.127V325.353Z" fill="#C7E2FF"/>
<path d="M713.127 328.795H678.727V330.004H713.127V328.795Z" fill="#C7E2FF"/>
<path d="M713.127 332.253H678.727V333.461H713.127V332.253Z" fill="#C7E2FF"/>
<path d="M562.903 386.779L566.416 420.407L567.917 420.25L564.404 386.622L562.903 386.779Z" fill="#12AAFF"/>
<path d="M579.848 414.179L579.462 417.167C577.411 418.009 575.317 418.744 573.189 419.367C571.468 419.813 569.712 420.11 567.94 420.257L564.417 386.68C564.417 386.68 567.437 387.251 572.955 394.789C574.172 396.497 575.682 397.975 577.416 399.154L579.848 414.179Z" fill="#2E53ED"/>
<path d="M603.915 415.455L579.428 417.134C579.428 417.134 577.583 415.891 576.979 410.183C576.649 406.476 576.784 402.743 577.382 399.07L601.852 397.491" fill="#F2B98F"/>
<path d="M748.727 420.76C732.055 421.348 705.27 421.499 678.552 421.432C635.314 421.348 592.209 420.76 592.209 420.76L589.056 394.856C589.056 394.856 629.779 390.692 668.891 385.253C707.383 379.914 744.701 387.805 744.701 387.805" fill="#091E89"/>
<path d="M591.053 411.074L723.183 411.19" stroke="#2058BC" stroke-width="0.5" stroke-miterlimit="10"/>
<path d="M581.862 393.053L601.707 420.414L602.929 419.527L583.083 392.166L581.862 393.053Z" fill="#12AAFF"/>
<path d="M610.289 408.303L611.446 411.073C611.446 411.073 608.997 414.229 607.102 416.109C605.835 417.342 604.466 418.466 603.01 419.467L583.151 392.22C583.151 392.22 586.053 391.229 594.607 394.99C596.512 395.857 598.557 396.374 600.645 396.517L610.289 408.303Z" fill="#2E53ED"/>
<path d="M626.723 404.224L611.443 411.074C611.443 411.074 609.213 410.939 605.841 406.289C603.697 403.244 601.95 399.938 600.642 396.451L625.029 385.186" fill="#F2B98F"/>
<path d="M772.162 370.228C772.162 370.228 786.468 420.761 750.593 420.761C714.717 420.761 691.27 395.998 686.137 395.394C681.005 394.789 626.764 415.942 626.764 415.942L610.764 391.264C610.764 391.264 654.22 368.835 671.143 365.376C688.066 361.918 733.753 373.082 733.753 373.082" fill="#103BB2"/>
<path d="M755.83 373.988C755.83 373.988 760.292 399.389 751.352 406.49C738.656 416.563 693.271 386.496 685.639 386.496C678.008 386.496 621.905 408.539 621.905 408.539" stroke="#4873D3" stroke-width="0.5" stroke-miterlimit="10"/>
<path d="M740.965 373.401C740.781 385.472 756.328 385.388 756.328 385.388" stroke="#4873D3" stroke-width="0.5" stroke-miterlimit="10"/>
<path d="M616.756 389.283L631.532 413.978" stroke="#4873D3" stroke-width="0.5" stroke-miterlimit="10"/>
<path fill-rule="evenodd" clip-rule="evenodd" d="M732.976 275.039C731.064 281.385 731.081 287.227 736.448 288.856C741.815 290.484 749.664 289.981 752.431 280.948C754.377 274.602 751.559 268.139 746.192 266.511C740.825 264.882 734.888 268.693 732.976 275.039Z" fill="#F2B98F"/>
<path fill-rule="evenodd" clip-rule="evenodd" d="M738.991 295.067C741.436 296.054 744.087 296.417 746.707 296.125C751.638 295.487 752.594 293.606 752.594 293.606L748.552 280.008L737.767 283.231L738.991 295.067Z" fill="#F2B98F"/>
<path fill-rule="evenodd" clip-rule="evenodd" d="M734.143 275.005C734.143 275.005 730.789 278.682 730.889 279.42C730.99 280.159 732.869 280.763 732.869 280.763" fill="#F2B98F"/>
<path d="M745.157 279.958C743.299 279.103 741.745 277.702 740.702 275.942C739.66 274.181 739.177 272.145 739.32 270.103C738.532 270.765 737.597 271.228 736.593 271.453C735.588 271.678 734.545 271.658 733.55 271.396C734.729 268.915 736.662 266.872 739.073 265.56C741.483 264.248 744.247 263.734 746.968 264.093C748.499 264.336 749.965 264.891 751.275 265.722C752.584 266.554 753.71 267.645 754.583 268.928C757.367 273.041 757.4 275.324 758.708 279.974C759.178 281.653 760.386 285.38 762.365 286.572C759.832 288.57 751.496 292.062 740.947 289.829C742.503 288.379 743.706 286.592 744.465 284.604C745.224 282.617 745.518 280.482 745.324 278.363" fill="#22252D"/>
<path d="M743.556 278.345C743.725 278.134 743.937 277.96 744.176 277.834C744.415 277.707 744.678 277.63 744.948 277.608C745.217 277.586 745.489 277.619 745.746 277.706C746.002 277.792 746.239 277.93 746.44 278.11C748.403 279.873 745.669 283.432 744.059 283.97C742.449 284.507 742.029 282.71 742.029 282.71" fill="#F2B98F"/>
<path d="M683.886 335.66C681.789 334.653 672.145 330.238 671.977 330.825C671.81 331.413 674.694 333.36 674.426 333.579C674.158 333.797 671.508 332.857 670.166 332.168C668.824 331.48 666.912 330.741 666.577 331.228C665.939 332.168 672.598 335.492 672.598 335.492C672.397 335.778 666.107 330.573 665.487 331.295C664.598 332.353 671.659 337.289 671.743 337.708C671.743 337.708 666.711 331.715 666.124 332.487C665.537 333.26 669.747 338.732 671.508 339.807C670.233 338.649 667.382 333.713 666.895 334.284C666.409 334.854 669.227 338.716 669.78 339.186C672.73 341.585 675.991 343.572 679.474 345.095" fill="#F2B98F"/>
<path d="M740.695 332.387C740.695 332.387 735.664 360.272 719.68 362.858C700.224 366.031 672.601 349.226 672.601 349.226L680.349 333.697C698.564 338.733 709.482 338.901 712.35 336.265C715.219 333.629 718.355 316.673 726.221 305.425C734.087 294.177 738.934 294.496 738.934 294.496C738.934 294.496 740.611 296.175 745.358 295.957C747.97 295.988 750.521 295.163 752.62 293.606C752.62 293.606 760.268 295.386 768.134 309.723C776.001 324.06 773.787 373.401 773.787 373.401C773.787 373.401 745.442 379.159 717.013 369.103C717.013 369.103 716.007 322.65 722.85 312.392" fill="#12AAFF"/>
<path d="M716.992 363.16C737.772 359.802 742.016 323.808 742.016 323.808" stroke="#136ABA" stroke-width="0.5" stroke-miterlimit="10"/>
<path d="M426.316 421.381L447.298 237.399" stroke="#254BB7" stroke-miterlimit="10"/>
<path d="M367.409 421.381L388.391 237.399" stroke="#254BB7" stroke-miterlimit="10"/>
<path d="M370.649 395.327H429.284" stroke="#254BB7" stroke-miterlimit="10"/>
<path d="M373.312 372.796H431.83" stroke="#254BB7" stroke-miterlimit="10"/>
<path d="M375.577 349.644H433.96" stroke="#254BB7" stroke-miterlimit="10"/>
<path d="M378.107 327.585H436.374" stroke="#254BB7" stroke-miterlimit="10"/>
<path d="M380.726 304.536H439.328" stroke="#254BB7" stroke-miterlimit="10"/>
<path d="M383.345 281.686H441.611" stroke="#254BB7" stroke-miterlimit="10"/>
<path d="M386.23 260.113H444.698" stroke="#254BB7" stroke-miterlimit="10"/>
<path d="M409.37 421.381L388.405 237.399" stroke="#254BB7" stroke-miterlimit="10"/>
<path d="M468.234 421.381L447.269 237.399" stroke="#254BB7" stroke-miterlimit="10"/>
<path d="M465.003 395.327H406.385" stroke="#254BB7" stroke-miterlimit="10"/>
<path d="M462.327 372.796H403.81" stroke="#254BB7" stroke-miterlimit="10"/>
<path d="M460.079 349.644H401.679" stroke="#254BB7" stroke-miterlimit="10"/>
<path d="M457.549 327.585H399.282" stroke="#254BB7" stroke-miterlimit="10"/>
<path d="M454.926 304.536H396.307" stroke="#254BB7" stroke-miterlimit="10"/>
<path d="M452.309 281.686H394.043" stroke="#254BB7" stroke-miterlimit="10"/>
<path d="M449.465 260.113H390.98" stroke="#254BB7" stroke-miterlimit="10"/>
<path d="M455.394 233.152H379.483V238.474H455.394V233.152Z" fill="#254BB7"/>
<path d="M498.609 140.817L477.744 180.42H422.631V175.468H476.503L495.774 138.953L498.609 140.817Z" fill="#202263"/>
<path fill-rule="evenodd" clip-rule="evenodd" d="M426.783 98.9628C427.068 105.678 425.575 111.319 419.94 111.554C414.305 111.789 406.774 109.338 406.355 99.8022C406.053 93.0869 410.413 87.53 416.049 87.295C421.684 87.0599 426.498 92.2979 426.783 98.9628Z" fill="#F2B98F"/>
<path fill-rule="evenodd" clip-rule="evenodd" d="M415.864 116.894C413.245 116.963 410.639 116.507 408.199 115.551C403.57 113.687 402.966 112.059 402.966 112.059L410.329 99.8199L420.024 105.662L415.864 116.894Z" fill="#F2B98F"/>
<path fill-rule="evenodd" clip-rule="evenodd" d="M425.674 98.6276C425.674 98.6276 427.972 103.043 427.737 103.765C427.502 104.487 425.473 104.571 425.473 104.571" fill="#F2B98F"/>
<path d="M412.386 99.5338C413.258 101.213 415.741 102.371 416.714 99.3491C417.686 96.3272 417.301 95.4542 418.827 95.1353C420.756 94.7491 420.202 96.1426 426.794 96.5791C430.735 96.8309 432.546 93.8426 432.094 91.6937C431.983 90.7998 431.587 89.9655 430.964 89.3151C430.342 88.6647 429.526 88.2329 428.638 88.0842C425.133 87.4798 426.24 88.2185 423.993 87.4966C421.745 86.7747 420.873 84.8273 417.284 84.6762C416.21 84.6486 415.145 84.8744 414.175 85.3352C413.205 85.796 412.356 86.4789 411.699 87.3287C410.745 86.9735 409.697 86.9674 408.739 87.3115C407.781 87.6556 406.976 88.3278 406.466 89.209C404.285 92.2309 405.61 93.49 404.269 96.5455C403.111 99.2148 403.95 103.764 405.275 105.091C406.197 106.044 407.458 106.595 408.783 106.623C410.108 106.651 411.391 106.155 412.353 105.242C412.353 105.242 408.747 99.1644 411.397 99.3323" fill="#212237"/>
<path d="M413.743 99.7862C413.628 99.5397 413.465 99.3189 413.263 99.1371C413.061 98.9554 412.825 98.8164 412.568 98.7286C412.311 98.6407 412.039 98.6059 411.768 98.626C411.497 98.6462 411.233 98.7211 410.992 98.846C408.644 100.072 410.405 104.218 411.847 105.158C413.29 106.099 414.128 104.437 414.128 104.437" fill="#F2B98F"/>
<path d="M490.619 317.108L457.08 313.087L456.9 314.587L490.439 318.608L490.619 317.108Z" fill="#103BB2"/>
<path d="M463.319 301.279L460.35 301.615C459.471 303.661 458.698 305.751 458.036 307.877C457.568 309.587 457.248 311.333 457.08 313.098L490.624 317.127C490.624 317.127 490.087 314.105 482.64 308.464C480.956 307.221 479.507 305.686 478.363 303.932L463.319 301.279Z" fill="#22252D"/>
<path d="M456.014 278.463L460.341 301.564C460.341 301.564 461.532 303.444 467.235 304.116C470.936 304.511 474.673 304.432 478.355 303.881L475.621 274.367" fill="#F2B98F"/>
<path d="M480.287 218.781L485.553 296.695L454.911 300.707L448.822 231.808" fill="#141744"/>
<path d="M454.638 294.95L484.04 291.088" stroke="#4D59A3" stroke-width="0.5" stroke-miterlimit="10"/>
<path d="M454.805 308.524L424.142 294.342L423.508 295.713L454.172 309.895L454.805 308.524Z" fill="#103BB2"/>
<path d="M433.735 285.027L430.783 284.422C429.326 286.098 427.955 287.846 426.674 289.66C425.695 291.145 424.848 292.712 424.142 294.344L454.767 308.53C454.767 308.53 455.204 305.492 449.853 297.819C448.637 296.116 447.728 294.213 447.17 292.195L433.735 285.027Z" fill="#22252D"/>
<path d="M435.311 276.13L430.799 284.423C430.799 284.423 431.37 286.572 436.586 288.99C439.982 290.501 443.554 291.579 447.219 292.196L456.461 278.061" fill="#F2B98F"/>
<path d="M378.915 182.552C378.915 182.552 369.456 233.152 394.094 233.152C413.349 233.152 435.706 233.454 444.561 233.605C445.008 233.61 445.448 233.721 445.843 233.929C446.239 234.137 446.579 234.436 446.836 234.802C447.093 235.167 447.26 235.589 447.322 236.032C447.385 236.475 447.341 236.926 447.195 237.349L433.173 278.698L463.145 291.776C463.145 291.776 487.515 236.862 484.814 216.229C482.114 195.597 413.701 192.944 413.701 192.944L406.623 179.513" fill="#202263"/>
<path d="M391.329 188.831C391.329 188.831 386.298 216.565 399.145 220.729C411.992 224.892 442.601 225.329 451.742 227.444C452.577 227.633 453.365 227.987 454.062 228.484C454.759 228.982 455.35 229.613 455.801 230.341C456.252 231.068 456.554 231.879 456.689 232.725C456.825 233.57 456.791 234.435 456.589 235.267L439.951 281.771" stroke="#4D59A3" stroke-width="0.5" stroke-miterlimit="10"/>
<path d="M410.294 192.441C409.086 201.607 390.536 205.065 390.536 205.065" stroke="#4D59A3" stroke-width="0.5" stroke-miterlimit="10"/>
<path d="M434.884 273.712L465.107 287.075" stroke="#4D59A3" stroke-width="0.5" stroke-miterlimit="10"/>
<path d="M464.005 178.909C466.336 178.758 476.852 178.22 476.869 178.909C476.886 179.597 473.397 180.235 473.515 180.587C473.632 180.94 476.483 181.007 477.993 180.873C479.502 180.739 481.548 180.755 481.666 181.343C481.917 182.451 474.504 183.022 474.504 183.022C474.504 183.358 482.354 180.873 482.672 181.779C483.108 183.072 474.705 185.036 474.471 185.406C474.471 185.406 481.297 181.679 481.616 182.636C481.934 183.593 475.947 187.085 473.917 187.437C475.594 186.833 480.005 183.307 480.24 184.079C480.475 184.852 476.433 187.336 475.745 187.555C472.114 188.691 468.345 189.324 464.542 189.435" fill="#F2B98F"/>
<path d="M417.872 134.806C417.872 157.202 421.092 165.025 428.908 169.843C436.724 174.662 454.855 176.29 465.807 177.23L464.549 194.337C464.549 194.337 422.853 193.498 412.17 187.622C401.486 181.746 399.859 149.748 399.859 149.748" fill="#4A63FE"/>
<path d="M416.067 116.54C426.818 127.033 431.162 194.505 431.162 194.505C405.4 195.898 369.273 196.184 369.273 196.184C369.273 196.184 372.426 146.776 381.953 131.448C387.169 123.14 394.459 116.335 403.102 111.705C404.751 113.7 406.978 115.131 409.476 115.802C411.612 116.345 413.813 116.594 416.017 116.54" fill="#4A63FE"/>
<path d="M430.768 170.767C418.524 166.033 418.859 139.877 418.859 139.877" stroke="#1C38AD" stroke-width="0.5" stroke-miterlimit="10"/>
<path d="M431.054 192.055C431.054 192.055 412.957 192.055 404.537 176.492C399.259 166.199 395.97 155.001 394.843 143.486" stroke="#1C38AD" stroke-width="0.5" stroke-miterlimit="10"/>
<path d="M337.137 318.688L355.418 334.15L298.175 398.701C298.175 398.701 293.831 399.792 288.112 394.957C282.393 390.122 282.007 385.035 282.007 385.035L337.137 318.688Z" fill="#C0E8FF"/>
<path d="M349.983 319.644C349.983 319.644 358.973 327.619 356.575 332.89C354.176 338.162 347.635 335.123 343.157 331.749C338.679 328.374 332.339 320.366 338.629 317.949C344.164 315.817 351.275 324.026 351.627 326.83C351.979 329.633 349.245 332.101 343.979 327.266C338.713 322.431 344.449 321.29 346.964 323.909" fill="#88F1FF"/>
<path d="M341.996 323.389C341.996 323.389 341.493 326.746 346.055 329.08C350.617 331.413 356.403 327.401 346.608 319.997C336.813 312.594 332.822 321.475 338.658 327.451L341.996 323.389Z" fill="#5FD9FF"/>
<path d="M343.578 327.3L346.798 323.472C346.798 323.472 343.561 321.458 342.303 322.767C340.66 324.379 343.578 327.3 343.578 327.3Z" fill="#376DF7"/>
<path d="M342.09 322.885L338.384 327.25C340.729 330.087 343.621 332.422 346.887 334.116L351.097 329.08C351.097 329.08 348.816 331.228 345.009 328.341C341.201 325.453 342.09 322.885 342.09 322.885Z" fill="#9FEEFF"/>
<path d="M202.234 344.222L224.776 327.669L272.744 396.182C272.744 396.182 272.895 401.554 265.851 406.742C258.807 411.929 252.836 410.821 252.836 410.821L202.234 344.222Z" fill="#D7F5FF"/>
<path d="M206.661 329.55C206.661 329.55 218.183 321.542 223.651 325.907C229.118 330.272 223.953 336.97 218.921 341.1C213.889 345.23 203.004 350.233 201.813 342.175C200.774 335.123 212.061 329.348 215.399 329.768C218.737 330.188 220.867 334.15 213.94 338.783C207.013 343.417 207.231 336.45 210.854 334.301" fill="#88F1FF"/>
<path d="M209.01 340.008C209.01 340.008 212.7 341.687 216.608 337.02C220.516 332.353 217.262 324.479 206.259 333.663C195.257 342.846 204.465 350.115 212.868 345.162L209.01 340.008Z" fill="#5FD9FF"/>
<path d="M213.842 339.421L210.236 334.519C210.236 334.519 207.083 337.675 208.274 339.555C209.75 341.855 213.842 339.421 213.842 339.421Z" fill="#376DF7"/>
<path d="M208.405 339.724L212.498 345.348C216.356 343.478 219.783 340.825 222.561 337.558L217.865 331.161C217.865 331.161 219.76 334.519 215.466 337.994C211.173 341.469 208.405 339.724 208.405 339.724Z" fill="#9FEEFF"/>
<path d="M245.591 333.73L248.225 345.078L244.115 349.443L237.977 347.462L235.344 336.114C233.606 337.712 232.446 339.841 232.044 342.169C231.643 344.497 232.023 346.892 233.125 348.981C234.226 351.07 235.988 352.735 238.135 353.716C240.282 354.697 242.692 354.939 244.991 354.404C247.29 353.87 249.347 352.588 250.841 350.76C252.336 348.932 253.183 346.66 253.252 344.299C253.32 341.937 252.606 339.62 251.22 337.708C249.834 335.796 247.855 334.397 245.591 333.73Z" fill="#B8DAFF"/>
<path d="M249.695 351.366L239.435 353.748L249.585 397.544L259.845 395.162L249.695 351.366Z" fill="#B8DAFF"/>
<path d="M253.97 393.16C251.909 393.64 250.036 394.721 248.589 396.266C247.141 397.812 246.184 399.752 245.838 401.842C245.492 403.931 245.773 406.077 246.645 408.007C247.518 409.937 248.942 411.565 250.739 412.684C252.535 413.804 254.623 414.366 256.738 414.298C258.853 414.23 260.901 413.536 262.622 412.303C264.343 411.07 265.66 409.354 266.407 407.372C267.154 405.39 267.297 403.231 266.818 401.168C266.502 399.797 265.918 398.501 265.101 397.356C264.284 396.211 263.249 395.238 262.055 394.494C260.861 393.75 259.533 393.249 258.146 393.021C256.758 392.792 255.339 392.839 253.97 393.16ZM262.356 405.399L257.828 409.646L251.891 407.833L250.482 401.772L255.027 397.542L260.964 399.355L262.356 405.399Z" fill="#6486F2"/>
<path d="M249.875 416.664L253.347 404.543L259.519 402.579L264.282 407.615L260.827 419.72C263.312 419.119 265.529 417.711 267.131 415.717C268.732 413.722 269.629 411.253 269.681 408.694C269.733 406.136 268.937 403.632 267.417 401.574C265.898 399.516 263.74 398.02 261.281 397.318C258.822 396.617 256.201 396.751 253.826 397.699C251.451 398.646 249.456 400.354 248.153 402.556C246.851 404.758 246.313 407.33 246.624 409.87C246.936 412.41 248.079 414.776 249.875 416.597V416.664Z" fill="#6486F2"/>
<path d="M268.597 351.055L255.238 397.781L266.187 400.917L279.546 354.191L268.597 351.055Z" fill="#0A0F17"/>
<path d="M273.118 356.076C275.318 356.708 277.657 356.673 279.837 355.975C282.018 355.276 283.942 353.947 285.367 352.153C286.793 350.36 287.655 348.184 287.844 345.9C288.034 343.617 287.542 341.328 286.432 339.324C285.322 337.32 283.643 335.691 281.607 334.642C279.572 333.593 277.271 333.172 274.997 333.433C272.722 333.693 270.576 334.623 268.829 336.104C267.083 337.586 265.814 339.552 265.185 341.755C264.341 344.707 264.703 347.874 266.19 350.559C267.678 353.244 270.169 355.229 273.118 356.076ZM271.642 340.11L278.15 338.431L282.812 343.266L280.967 349.73L274.46 351.409L269.763 346.574L271.642 340.11Z" fill="#0A0F17"/>
<path d="M302.502 310.563L327.308 323.389L281.688 407.33C281.688 407.33 276.656 410.386 268.907 406.356C266.743 405.35 264.813 403.904 263.239 402.108C261.665 400.313 260.482 398.209 259.767 395.931L302.502 310.563Z" fill="#D7F5FF"/>
<path d="M318.189 306.853C318.189 306.853 330.449 313.685 328.503 321.391C326.558 329.097 318.138 327.687 312.184 325.051C306.23 322.415 297.089 314.542 304.251 309.001C310.54 304.15 320.57 311.99 321.509 315.448C322.449 318.906 319.581 323.154 312.369 318.957C305.157 314.76 311.865 311.083 315.371 313.501" fill="#88F1FF"/>
<path d="M309.25 314.826C309.25 314.826 309.25 319.275 315.154 320.601C321.057 321.928 327.297 314.423 314.181 308.698C301.065 302.974 297.862 315.884 305.946 321.357L309.25 314.826Z" fill="#5FD9FF"/>
<path d="M311.707 319.209L314.91 313.031C314.91 313.031 310.65 311.688 309.358 313.853C307.815 316.539 311.707 319.209 311.707 319.209Z" fill="#376DF7"/>
<path d="M309.252 314.071L305.579 321.105C308.898 323.851 312.826 325.762 317.034 326.679L321.21 318.654C321.21 318.654 318.862 322.28 313.747 320.031C308.631 317.781 309.252 314.071 309.252 314.071Z" fill="#9FEEFF"/>
<path d="M299.114 369.405H212.134V421.381H299.114V369.405Z" fill="#78A6FF"/>
<path d="M345.853 369.405H298.254V421.381H345.853V369.405Z" fill="#0888FF"/>
<path d="M279.623 394.487H193.045L211.662 369.405H298.24L279.623 394.487Z" fill="#BDE3FF"/>
<path d="M308.856 394.487H356.69L345.838 369.405H297.987L308.856 394.487Z" fill="#9FBAFF"/>
<path d="M318.161 408.986C318.161 408.986 317.492 420.012 315.403 420.166C315.126 420.186 304.803 420.186 304.803 420.186H291.613C291.613 420.186 291.716 416.867 295.566 416.184C299.417 415.5 305.865 412.735 308.196 407.541C310.65 402.08 318.161 408.986 318.161 408.986Z" fill="#163560"/>
<path d="M369.937 321.706C368.083 325.136 366.006 328.442 363.721 331.603C356.878 341.21 349.432 349.129 348.134 356.617C347.842 358.24 347.441 359.842 346.933 361.411C346.39 363.125 345.732 364.93 344.949 366.795C342.046 373.808 337.704 381.656 333.37 388.813C325.878 401.164 318.831 411.471 318.831 411.471L305.912 410.86C306.428 409.422 312.065 392.365 319.607 371.524L329.064 345.383C329.482 344.225 329.903 343.07 330.316 341.927C331.277 339.271 332.221 336.653 333.144 334.11C340.222 314.542 345.861 298.959 345.861 298.959C345.861 298.959 374.153 287.034 377.097 294.76C379.509 301.131 377.536 307.372 369.937 321.706Z" fill="#141744"/>
<path d="M346.649 397.49C346.649 397.49 351.693 401.935 350.71 405.093C349.726 408.252 345.171 410.359 344.561 414.219C343.952 418.079 341.487 420.185 339.268 420.185H328.709C328.709 420.185 327.077 417.47 331.014 416.649C334.952 415.828 336.438 411.291 336.189 407.083C335.941 402.875 336.561 397.257 336.561 397.257L344.928 395.384L346.649 397.49Z" fill="#233862"/>
<path d="M341.863 297.519C341.863 297.519 311.348 345.68 311.348 349.513C311.348 357.988 334.405 406.78 334.405 406.78C334.405 406.78 346.643 400.49 346.153 396.074C346.153 396.074 338.809 361.81 336.673 356.316C334.538 350.822 375.242 330.067 377.377 305.004L341.863 297.519Z" fill="#202263"/>
<path d="M326.752 272.717C326.752 272.717 320.621 276.047 318.905 276.047C317.189 276.047 310.449 274.802 308.572 275.719C306.695 276.636 303.293 280.323 302.654 281.528C301.507 283.694 307.274 282.738 309.997 280.891C310.193 280.759 310.415 280.667 310.649 280.62C310.884 280.574 311.126 280.575 311.36 280.623C312.771 280.919 315.704 281.427 317.12 280.925C319.025 280.254 329.053 279.505 329.053 279.505L326.752 272.717Z" fill="#E49963"/>
<path d="M373.972 225.382C373.972 225.382 367.539 270.438 356.888 274.475C351.63 276.466 328.402 280.979 321.532 281.432C321.532 281.432 319.85 280.087 320.26 274.609C320.26 274.609 344.595 265.805 348.053 261.016C353.197 253.889 344.857 231.904 351.315 225.21C357.772 218.517 368.629 215.642 373.972 225.382Z" fill="#103BB2"/>
<path d="M348.795 222.725C357.76 224.933 372.62 217.016 372.62 217.016C372.62 217.016 366.851 213.32 364.711 205.193C364.603 204.785 364.506 204.365 364.418 203.936L359.813 203.005L352.977 208.851C353.178 211.068 353.516 213.271 353.99 215.45C354.139 216.174 354.309 216.961 354.496 217.793C352.295 219.09 350.362 220.762 348.795 222.725Z" fill="#E49963"/>
<path d="M381.238 257.616C379.994 274.091 381.631 299.159 380.22 303.49C378.992 307.234 365.113 305.007 359.571 303.758C357.519 303.294 355.035 302.635 352.468 301.852C345.308 299.679 337.496 296.556 336.671 294.244C336.64 294.158 336.614 294.069 336.595 293.979C336.523 293.66 336.528 293.329 336.61 293.013C336.887 291.836 337.965 290.559 338.082 287.641C338.225 284.383 338.203 280.545 338.328 276.42C338.328 275.956 338.34 275.453 338.392 274.985V274.816C338.392 274.729 338.392 274.642 338.392 274.552C338.512 269.951 338.757 265.114 339.04 260.302C339.221 257.29 339.43 254.305 339.67 251.445C340.294 244.067 341.143 237.502 342.25 233.353C344.069 226.59 348.082 222.177 351.734 218.945L354.375 216.714C357.32 217.349 360.81 216.929 363.962 215.458C367.373 213.864 368.551 212.721 369.145 213.151C377.041 219.141 382.711 237.473 381.238 257.616Z" fill="#4A63FE"/>
<path d="M352.636 301.54C345.375 299.363 337.451 296.236 336.615 293.921C336.583 293.834 336.557 293.745 336.538 293.655C336.538 293.333 336.543 293.01 336.553 292.688C336.834 291.51 337.927 290.23 338.046 287.308C338.191 284.046 338.168 280.202 338.295 276.071C338.295 275.607 338.308 275.104 338.36 274.634V274.465C338.36 274.378 338.36 274.291 338.36 274.201L367.729 237.86C367.729 237.86 387.459 277.784 352.636 301.54Z" fill="#103BB2"/>
<path d="M352.873 208.672C353.071 210.822 353.404 212.958 353.871 215.07C360.459 213.075 363.448 207.493 364.445 205.126C364.338 204.731 364.243 204.324 364.156 203.907L359.618 203.005L352.873 208.672Z" fill="#D68D5D"/>
<path d="M352.52 212.381C352.52 212.381 366.605 210.055 365.008 201.393C363.411 192.732 364.15 186.6 355.088 187.719C346.027 188.837 344.894 192.459 344.718 195.48C344.542 198.501 348.815 212.764 352.52 212.381Z" fill="#E49963"/>
<path d="M297.233 285.705L295.998 286.101L285.479 254.232L286.715 253.836L297.233 285.705Z" fill="#4A75CB"/>
<path d="M331.702 285.377L296.011 286.125L295.965 284.022L331.657 283.273L331.702 285.377Z" fill="#4A75CB"/>
<path d="M331.094 286.897C331.094 286.897 319.476 289.752 315.119 289.453C310.762 289.154 307.139 287.221 306.592 286.212C306.045 285.202 304.892 283.411 307.859 283.743C310.826 284.074 314.873 284.662 315.006 284.129C315.139 283.595 312.588 283.648 312.588 283.648C312.588 283.648 311.819 282.607 312.788 282.568C313.756 282.529 316.578 281.816 317.628 282.306C318.678 282.795 319.646 284.605 320.413 284.524C321.179 284.444 330.133 280.761 330.133 280.761L331.094 286.897Z" fill="#E49963"/>
<path d="M371.931 227.051C371.931 227.051 370.565 272.779 360.333 277.987C355.286 280.55 332.491 287.601 325.649 288.805C325.649 288.805 323.808 287.642 323.6 282.124C323.6 282.124 347.023 270.663 349.95 265.501C354.308 257.816 343.458 236.75 349.18 229.354C354.901 221.959 365.491 217.894 371.931 227.051Z" fill="#4A63FE"/>
<path d="M364.85 205.016C364.85 205.016 365.013 202.108 363.141 200.442C363.141 200.442 363.791 197.524 362.587 197.043C361.382 196.562 361.133 199.015 360.581 198.628C360.03 198.242 357.572 196.417 356.518 193.725C355.465 191.032 345.823 194.293 344.7 194.779C343.577 195.265 339.964 193.485 339.26 192.042C339.26 192.042 341.265 190.504 342.168 189.349C343.07 188.195 349.391 180.407 358.222 182.618C367.053 184.83 368.255 188.871 367.753 192.336C367.251 195.801 368.465 203.854 364.85 205.016Z" fill="#2B478B"/>
</svg>
